<?xml version="1.0" encoding="UTF-8" standalone="no"?>
<svg
   xmlns:dc="http://purl.org/dc/elements/1.1/"
   xmlns:cc="http://creativecommons.org/ns#"
   xmlns:rdf="http://www.w3.org/1999/02/22-rdf-syntax-ns#"
   xmlns:svg="http://www.w3.org/2000/svg"
   xmlns="http://www.w3.org/2000/svg"
   xmlns:xlink="http://www.w3.org/1999/xlink"
   xmlns:sodipodi="http://sodipodi.sourceforge.net/DTD/sodipodi-0.dtd"
   xmlns:inkscape="http://www.inkscape.org/namespaces/inkscape"
   width="48"
   height="48"
   viewBox="0 0 48 48"
   version="1.1"
   id="svg900"
   sodipodi:docname="instagram_color.svg"
   inkscape:version="0.92.5 (2060ec1f9f, 2020-04-08)">
  <metadata
     id="metadata904">
    <rdf:RDF>
      <cc:Work
         rdf:about="">
        <dc:format>image/svg+xml</dc:format>
        <dc:type
           rdf:resource="http://purl.org/dc/dcmitype/StillImage" />
        <dc:title>Github-black</dc:title>
      </cc:Work>
    </rdf:RDF>
  </metadata>
  <sodipodi:namedview
     pagecolor="#ffffff"
     bordercolor="#666666"
     borderopacity="1"
     objecttolerance="10"
     gridtolerance="10"
     guidetolerance="10"
     inkscape:pageopacity="0"
     inkscape:pageshadow="2"
     inkscape:window-width="1920"
     inkscape:window-height="1016"
     id="namedview902"
     showgrid="false"
     borderlayer="false"
     inkscape:showpageshadow="false"
     inkscape:pagecheckerboard="true"
     inkscape:zoom="4.4042553"
     inkscape:cx="-60.897656"
     inkscape:cy="17.848514"
     inkscape:window-x="0"
     inkscape:window-y="0"
     inkscape:window-maximized="1"
     inkscape:current-layer="svg900" />
  <!-- Generator: Sketch 3.7.2 (28276) - http://www.bohemiancoding.com/sketch -->
  <title
     id="title891">Github-black</title>
  <desc
     id="desc893">Created with Sketch.</desc>
  <defs
     id="defs895">
    <linearGradient
       inkscape:collect="always"
       id="linearGradient4125">
      <stop
         style="stop-color:#fce23d;stop-opacity:1"
         offset="0"
         id="stop4121" />
      <stop
         style="stop-color:#e7108b;stop-opacity:1"
         offset="1"
         id="stop4123" />
    </linearGradient>
    <linearGradient
       inkscape:collect="always"
       xlink:href="#linearGradient4125"
       id="linearGradient4127"
       x1="503.63284"
       y1="203.68599"
       x2="545.86475"
       y2="163.49759"
       gradientUnits="userSpaceOnUse" />
  </defs>
  <g
     id="Icons"
     style="fill:#460aff;fill-rule:evenodd;stroke:none;stroke-width:1;fill-opacity:0">
    <g
       transform="translate(-200,-160)"
       id="Black"
       style="fill:#460aff;fill-opacity:0">
      <path
         id="Facebook"
         d="M 225.63835,208 H 202.64923 C 201.18567,208 200,206.81359 200,205.3506 V 162.64921 C 200,161.18585 201.18586,160 202.64923,160 h 42.70172 c 1.463,0 2.64905,1.18585 2.64905,2.64921 V 205.3506 C 248,206.81378 246.81377,208 245.35095,208 H 233.1193 v -18.58825 h 6.23922 l 0.93423,-7.24416 h -7.17345 v -4.62495 c 0,-2.09735 0.58241,-3.52663 3.58999,-3.52663 l 3.83602,-0.002 v -6.47924 c -0.66342,-0.0883 -2.94053,-0.28552 -5.58976,-0.28552 -5.53072,0 -9.3172,3.37596 -9.3172,9.57564 v 5.34238 h -6.25523 v 7.24416 h 6.25523 z"
         inkscape:connector-curvature="0"
         style="fill:#460aff;fill-opacity:0" />
    </g>
  </g>
  <g
     id="Icons-3"
     style="fill:#dddddd;fill-rule:evenodd;stroke:none;stroke-width:1;fill-opacity:1">
    <g
       transform="translate(-500,-160)"
       id="Black-6"
       style="fill:#dddddd;fill-opacity:1">
      <path
         id="Instagram"
         d="m 524.00005,160 c -6.51806,0 -7.33536,0.0276 -9.89522,0.14443 -2.55452,0.11651 -4.29917,0.52226 -5.82574,1.11559 -1.57821,0.61324 -2.91664,1.43388 -4.25096,2.76811 -1.33423,1.33432 -2.15487,2.67275 -2.76811,4.25096 -0.59333,1.52657 -0.99908,3.27122 -1.11559,5.82574 -0.1168,2.55986 -0.14443,3.37716 -0.14443,9.89522 0,6.51796 0.0276,7.33526 0.14443,9.89512 0.11651,2.55452 0.52226,4.29916 1.11559,5.82574 0.61324,1.57821 1.43388,2.91664 2.76811,4.25096 1.33432,1.33423 2.67275,2.15487 4.25096,2.76821 1.52657,0.59323 3.27122,0.99898 5.82574,1.11549 2.55986,0.1168 3.37716,0.14443 9.89522,0.14443 6.51796,0 7.33526,-0.0276 9.89512,-0.14443 2.55452,-0.11651 4.29917,-0.52226 5.82574,-1.11549 1.57821,-0.61334 2.91664,-1.43398 4.25096,-2.76821 1.33423,-1.33432 2.15487,-2.67275 2.76821,-4.25096 0.59323,-1.52658 0.99898,-3.27122 1.11549,-5.82574 0.1168,-2.55986 0.14443,-3.37716 0.14443,-9.89512 0,-6.51806 -0.0276,-7.33536 -0.14443,-9.89522 -0.11651,-2.55452 -0.52226,-4.29917 -1.11549,-5.82574 -0.61334,-1.57821 -1.43398,-2.91664 -2.76821,-4.25096 -1.33432,-1.33423 -2.67275,-2.15487 -4.25096,-2.76811 -1.52657,-0.59333 -3.27122,-0.99908 -5.82574,-1.11559 C 531.33531,160.02763 530.51801,160 524.00005,160 Z m 0,4.32432 c 6.40821,0 7.16731,0.0245 9.69801,0.13995 2.33998,0.1067 3.61076,0.49768 4.45645,0.82635 1.12026,0.43538 1.91975,0.95545 2.75954,1.79533 0.83988,0.83979 1.35995,1.63928 1.79533,2.75954 0.32867,0.84569 0.71965,2.11647 0.82635,4.45645 0.11547,2.5307 0.13995,3.2898 0.13995,9.69811 0,6.40821 -0.0245,7.16731 -0.13995,9.69801 -0.1067,2.33998 -0.49768,3.61076 -0.82635,4.45645 -0.43538,1.12026 -0.95545,1.91975 -1.79533,2.75954 -0.83979,0.83988 -1.63928,1.35995 -2.75954,1.79533 -0.84569,0.32867 -2.11647,0.71965 -4.45645,0.82635 -2.53032,0.11547 -3.28932,0.13995 -9.69801,0.13995 -6.40879,0 -7.16769,-0.0245 -9.69811,-0.13995 -2.33998,-0.1067 -3.61076,-0.49768 -4.45645,-0.82635 -1.12026,-0.43538 -1.91975,-0.95545 -2.75954,-1.79533 -0.83979,-0.83979 -1.35995,-1.63928 -1.79533,-2.75954 -0.32867,-0.84569 -0.71965,-2.11647 -0.82635,-4.45645 -0.11547,-2.5307 -0.13995,-3.2898 -0.13995,-9.69801 0,-6.40831 0.0245,-7.16741 0.13995,-9.69811 0.1067,-2.33998 0.49768,-3.61076 0.82635,-4.45645 0.43538,-1.12026 0.95545,-1.91975 1.79533,-2.75954 0.83979,-0.83988 1.63928,-1.35995 2.75954,-1.79533 0.84569,-0.32867 2.11647,-0.71965 4.45645,-0.82635 2.5307,-0.11547 3.2898,-0.13995 9.69811,-0.13995 z m 0,7.35136 c -6.80663,0 -12.32437,5.51774 -12.32437,12.32437 0,6.80653 5.51774,12.32427 12.32437,12.32427 6.80653,0 12.32427,-5.51774 12.32427,-12.32427 0,-6.80663 -5.51774,-12.32437 -12.32427,-12.32437 z m 0,20.32432 C 519.5817,192 516,188.4183 516,184.00005 516,179.5817 519.5817,176 524.00005,176 528.4183,176 532,179.5817 532,184.00005 532,188.4183 528.4183,192 524.00005,192 Z m 15.69123,-20.81123 c 0,1.5906 -1.28945,2.87995 -2.88005,2.87995 -1.5905,0 -2.87995,-1.28935 -2.87995,-2.87995 0,-1.5906 1.28945,-2.88005 2.87995,-2.88005 1.5906,0 2.88005,1.28945 2.88005,2.88005 z"
         inkscape:connector-curvature="0"
         style="fill:url(#linearGradient4127);fill-opacity:1" />
    </g>
  </g>
</svg>
